name analog
datacolumns 19
datarows 52
range 0.498 0.5235
endheader
time	ground_force_vx	ground_force_vy	ground_force_vz	ground_force_px	ground_force_py	ground_force_pz	l_ground_force_vx	l_ground_force_vy	l_ground_force_vz	l_ground_force_px	l_ground_force_py	l_ground_force_pz	ground_torque_x	ground_torque_y	ground_torque_z	l_ground_torque_x	l_ground_torque_y	l_ground_torque_z
0.498	-0.0	-0.0	-0.0	-0.0	-0.0	-0.0	7.5369157791137695	16.424348831176758	-743.0084228515625	-0.0	-0.0	-0.0	-0.0	-0.0	-0.0	236748.625	1711.904052734375	663.3115234375
0.4985	-0.0	-0.0	-0.0	-0.0	-0.0	-0.0	7.761730194091797	16.559995651245117	-745.1973876953125	-0.0	-0.0	-0.0	-0.0	-0.0	-0.0	237168.875	1638.4871826171875	743.0453491210938
0.499	-0.0	-0.0	-0.0	-0.0	-0.0	-0.0	7.629151344299316	16.555335998535156	-746.6734619140625	-0.0	-0.0	-0.0	-0.0	-0.0	-0.0	238102.546875	1774.944091796875	753.4252319335938
0.4995	-0.0	-0.0	-0.0	-0.0	-0.0	-0.0	7.226744651794434	15.959844589233398	-745.2987060546875	-0.0	-0.0	-0.0	-0.0	-0.0	-0.0	238036.671875	1811.8441162109373	780.7645263671875
0.5	-0.0	-0.0	-0.0	-0.0	-0.0	-0.0	6.567661762237549	14.748196601867676	-743.7351684570312	-0.0	-0.0	-0.0	-0.0	-0.0	-0.0	237706.390625	2235.0498046875	692.2264404296875
0.5005000000000001	-0.0	-0.0	-0.0	-0.0	-0.0	-0.0	6.43337345123291	13.759015083312988	-745.0166015625	-0.0	-0.0	-0.0	-0.0	-0.0	-0.0	237229.5	2285.56884765625	837.5643310546875
0.501	-0.0	-0.0	-0.0	-0.0	-0.0	-0.0	6.161223411560059	13.073736190795898	-742.6541748046875	-0.0	-0.0	-0.0	-0.0	-0.0	-0.0	236739.140625	2535.339111328125	718.452880859375
0.5015000000000001	-0.0	-0.0	-0.0	-0.0	-0.0	-0.0	5.500349044799805	12.321218490600586	-740.56103515625	-0.0	-0.0	-0.0	-0.0	-0.0	-0.0	235954.265625	2674.796875	444.01953125
0.502	-0.0	-0.0	-0.0	-0.0	-0.0	-0.0	5.056514739990234	11.649579048156738	-740.5455322265625	-0.0	-0.0	-0.0	-0.0	-0.0	-0.0	235626.90625	2968.2724609375	330.7283630371094
0.5025000000000001	-0.0	-0.0	-0.0	-0.0	-0.0	-0.0	4.634793758392334	10.177300453186035	-740.45556640625	-0.0	-0.0	-0.0	-0.0	-0.0	-0.0	235348.25	3133.01123046875	257.8111267089844
0.503	-0.0	-0.0	-0.0	-0.0	-0.0	-0.0	3.950533628463745	9.35684299468994	-738.2906494140625	-0.0	-0.0	-0.0	-0.0	-0.0	-0.0	234960.546875	3458.847412109375	64.5216064453125
0.5035000000000001	-0.0	-0.0	-0.0	-0.0	-0.0	-0.0	3.594455480575561	8.210641860961914	-737.1473388671875	-0.0	-0.0	-0.0	-0.0	-0.0	-0.0	234544.21875	3801.485595703125	-61.655738830566406
0.504	-0.0	-0.0	-0.0	-0.0	-0.0	-0.0	3.104877471923828	7.333858013153076	-736.0074462890625	-0.0	-0.0	-0.0	-0.0	-0.0	-0.0	233818.625	3969.470458984375	-83.15338897705078
0.5045000000000001	-0.0	-0.0	-0.0	-0.0	-0.0	-0.0	3.1923751831054688	7.264941692352295	-733.919677734375	-0.0	-0.0	-0.0	-0.0	-0.0	-0.0	233406.328125	4216.349609375	2.295562744140625
0.505	-0.0	-0.0	-0.0	-0.0	-0.0	-0.0	3.060816526412964	7.198732376098633	-732.6893310546875	-0.0	-0.0	-0.0	-0.0	-0.0	-0.0	232898.4375	4486.23828125	-56.27505493164063
0.5055000000000001	-0.0	-0.0	-0.0	-0.0	-0.0	-0.0	2.994701623916626	7.197346687316895	-732.2555541992188	-0.0	-0.0	-0.0	-0.0	-0.0	-0.0	232438.421875	4757.98486328125	-48.10573959350586
0.506	-0.0	-0.0	-0.0	-0.0	-0.0	-0.0	2.836344718933105	7.068124771118164	-730.091796875	-0.0	-0.0	-0.0	-0.0	-0.0	-0.0	232573.0	4880.2392578125	-84.91204833984375
0.5065000000000001	-0.0	-0.0	-0.0	-0.0	-0.0	-0.0	3.1241421699523926	7.290374279022217	-730.4197998046875	-0.0	-0.0	-0.0	-0.0	-0.0	-0.0	231967.3125	5258.173828125	-121.93891143798828
0.507	-0.0	-0.0	-0.0	-0.0	-0.0	-0.0	3.149902820587158	7.507052898406982	-727.2882690429688	-0.0	-0.0	-0.0	-0.0	-0.0	-0.0	231392.9375	5448.056640625	-99.22193908691406
0.5075000000000001	-0.0	-0.0	-0.0	-0.0	-0.0	-0.0	3.4374232292175293	7.792983055114746	-724.9202270507812	-0.0	-0.0	-0.0	-0.0	-0.0	-0.0	230419.078125	5435.0791015625	56.35211563110352
0.508	-0.0	-0.0	-0.0	-0.0	-0.0	-0.0	4.079530239105225	8.124434471130371	-722.043212890625	-0.0	-0.0	-0.0	-0.0	-0.0	-0.0	229671.515625	5761.9716796875	211.83349609375
0.5085000000000001	-0.0	-0.0	-0.0	-0.0	-0.0	-0.0	4.189778327941895	8.147798538208008	-720.1222534179688	-0.0	-0.0	-0.0	-0.0	-0.0	-0.0	229124.0625	5824.94189453125	183.21112060546875
0.509	-0.0	-0.0	-0.0	-0.0	-0.0	-0.0	4.479182243347168	8.391237258911133	-718.0274047851562	-0.0	-0.0	-0.0	-0.0	-0.0	-0.0	228399.28125	6072.21826171875	301.7191467285156
0.5095000000000001	-0.0	-0.0	-0.0	-0.0	-0.0	-0.0	4.503423690795898	8.965448379516602	-715.6769409179688	-0.0	-0.0	-0.0	-0.0	-0.0	-0.0	227756.90625	6132.47412109375	309.5979309082031
0.51	-0.0	-0.0	-0.0	-0.0	-0.0	-0.0	4.703624725341797	9.71538543701172	-713.6569213867188	-0.0	-0.0	-0.0	-0.0	-0.0	-0.0	226871.5	6897.19580078125	361.7814331054688
0.5105000000000001	-0.0	-0.0	-0.0	-0.0	-0.0	-0.0	5.167975902557373	9.40649700164795	-710.7811279296875	-0.0	-0.0	-0.0	-0.0	-0.0	-0.0	226506.484375	6604.4853515625	532.7371215820312
0.511	-0.0	-0.0	-0.0	-0.0	-0.0	-0.0	5.721595287322998	9.53843879699707	-709.1251220703125	-0.0	-0.0	-0.0	-0.0	-0.0	-0.0	225952.9375	7128.4306640625	703.749267578125
0.5115000000000001	-0.0	-0.0	-0.0	-0.0	-0.0	-0.0	6.010405540466309	9.471914291381836	-707.4674682617188	-0.0	-0.0	-0.0	-0.0	-0.0	-0.0	225262.53125	7420.16064453125	852.1881103515625
0.512	-0.0	-0.0	-0.0	-0.0	-0.0	-0.0	6.564380168914795	8.391535758972168	-707.7265014648438	-0.0	-0.0	-0.0	-0.0	-0.0	-0.0	224960.078125	7872.58837890625	1015.4502563476562
0.5125	-0.0	-0.0	-0.0	-0.0	-0.0	-0.0	6.586674213409424	8.876340866088867	-705.9844360351562	-0.0	-0.0	-0.0	-0.0	-0.0	-0.0	225014.234375	8353.056640625	1208.3665771484375
0.513	-0.0	-0.0	-0.0	-0.0	-0.0	-0.0	6.742040634155273	8.478944778442383	-706.8573608398438	-0.0	-0.0	-0.0	-0.0	-0.0	-0.0	224789.28125	8609.15234375	1178.692138671875
0.5135	-0.0	-0.0	-0.0	-0.0	-0.0	-0.0	6.76420783996582	8.677499771118164	-707.9920043945312	-0.0	-0.0	-0.0	-0.0	-0.0	-0.0	224878.3125	8857.849609375	1082.4708251953125
0.514	-0.0	-0.0	-0.0	-0.0	-0.0	-0.0	7.18468189239502	8.390264511108398	-707.7285766601562	-0.0	-0.0	-0.0	-0.0	-0.0	-0.0	225158.53125	9128.0703125	1193.6533203125
0.5145	-0.0	-0.0	-0.0	-0.0	-0.0	-0.0	7.007658958435059	7.904545783996582	-708.4300537109375	-0.0	-0.0	-0.0	-0.0	-0.0	-0.0	225795.75	9351.771484375	1082.556640625
0.515	-0.0	-0.0	-0.0	-0.0	-0.0	-0.0	6.830538272857666	7.684168338775635	-709.82763671875	-0.0	-0.0	-0.0	-0.0	-0.0	-0.0	226089.03125	9865.25	971.2058715820312
0.5155	-0.0	-0.0	-0.0	-0.0	-0.0	-0.0	6.65370512008667	7.663136959075928	-712.531494140625	-0.0	-0.0	-0.0	-0.0	-0.0	-0.0	226818.453125	10118.681640625	993.09375
0.516	-0.0	-0.0	-0.0	-0.0	-0.0	-0.0	6.828172206878662	7.331063747406006	-715.0596313476562	-0.0	-0.0	-0.0	-0.0	-0.0	-0.0	226939.46875	10739.333984375	926.7923583984376
0.5165	-0.0	-0.0	-0.0	-0.0	-0.0	-0.0	6.453178405761719	6.978088855743408	-716.8980712890625	-0.0	-0.0	-0.0	-0.0	-0.0	-0.0	228294.734375	10792.4658203125	756.0307006835938
0.517	-0.0	-0.0	-0.0	-0.0	-0.0	-0.0	6.120496273040772	6.315837860107422	-719.423828125	-0.0	-0.0	-0.0	-0.0	-0.0	-0.0	228944.875	11311.3779296875	658.6202392578125
0.5175	-0.0	-0.0	-0.0	-0.0	-0.0	-0.0	5.65660285949707	5.587342262268066	-721.9566650390625	-0.0	-0.0	-0.0	-0.0	-0.0	-0.0	229746.234375	11738.4970703125	539.4487915039062
0.518	-0.0	-0.0	-0.0	-0.0	-0.0	-0.0	5.4988226890563965	5.651967525482178	-724.4920654296875	-0.0	-0.0	-0.0	-0.0	-0.0	-0.0	230470.09375	11948.419921875	332.6925048828125
0.5185	-0.0	-0.0	-0.0	-0.0	-0.0	-0.0	4.4814772605896	5.412950038909912	-725.8072509765625	-0.0	-0.0	-0.0	-0.0	-0.0	-0.0	231080.21875	12459.0673828125	248.98248291015625
0.519	-0.0	-0.0	-0.0	-0.0	-0.0	-0.0	4.169449806213379	5.740866661071777	-730.2535400390625	-0.0	-0.0	-0.0	-0.0	-0.0	-0.0	232252.171875	12778.6083984375	93.2681121826172
0.5195	-0.0	-0.0	-0.0	-0.0	-0.0	-0.0	3.5284676551818848	5.47252082824707	-734.9600830078125	-0.0	-0.0	-0.0	-0.0	-0.0	-0.0	233705.96875	13210.33984375	-18.60029602050781
0.52	-0.0	-0.0	-0.0	-0.0	-0.0	-0.0	3.3735287189483643	5.648407936096191	-739.150634765625	-0.0	-0.0	-0.0	-0.0	-0.0	-0.0	235034.46875	13520.658203125	-173.3079833984375
0.5205	-0.0	-0.0	-0.0	-0.0	-0.0	-0.0	2.908897876739502	5.408550262451172	-743.432861328125	-0.0	-0.0	-0.0	-0.0	-0.0	-0.0	236336.78125	13932.0185546875	-417.6007080078125
0.521	-0.0	-0.0	-0.0	-0.0	-0.0	-0.0	2.659311294555664	6.090411186218262	-747.1767578125	-0.0	-0.0	-0.0	-0.0	-0.0	-0.0	237392.5	14094.8251953125	-543.8991088867188
0.5215	-0.0	-0.0	-0.0	-0.0	-0.0	-0.0	1.8877415657043457	6.443657398223877	-750.4020385742188	-0.0	-0.0	-0.0	-0.0	-0.0	-0.0	238662.421875	14357.796875	-584.2857666015625
0.522	-0.0	-0.0	-0.0	-0.0	-0.0	-0.0	1.5989885330200195	6.88362979888916	-752.4174194335938	-0.0	-0.0	-0.0	-0.0	-0.0	-0.0	239464.203125	14819.7099609375	-769.1131591796875
0.5225	-0.0	-0.0	-0.0	-0.0	-0.0	-0.0	1.108789086341858	6.539246082305908	-754.8709106445312	-0.0	-0.0	-0.0	-0.0	-0.0	-0.0	240079.3125	14970.978515625	-814.5503540039062
0.523	-0.0	-0.0	-0.0	-0.0	-0.0	-0.0	1.060977339744568	6.406858444213867	-757.984619140625	-0.0	-0.0	-0.0	-0.0	-0.0	-0.0	240717.828125	15286.71875	-829.208251953125
0.5235	-0.0	-0.0	-0.0	-0.0	-0.0	-0.0	0.2208087146282196	6.271803855895996	-758.2511596679688	-0.0	-0.0	-0.0	-0.0	-0.0	-0.0	240907.78125	15558.2939453125	-1043.6861572265625
